<svg id="Gradient" height="512" viewBox="0 0 16 16" width="512" xmlns="http://www.w3.org/2000/svg" xmlns:xlink="http://www.w3.org/1999/xlink"><linearGradient id="linear-gradient" gradientUnits="userSpaceOnUse" x1="2.872" x2="15.603" y1="2.372" y2="15.103"><stop offset="0" stop-color="#87f1fc"/><stop offset=".2557" stop-color="#7fd4fb"/><stop offset=".5295" stop-color="#78bcfb"/><stop offset=".7844" stop-color="#74aefa"/><stop offset="1" stop-color="#73a9fa"/></linearGradient><path d="m15.43 14.75a.5024.5024 0 0 1 -.02.54.5215.5215 0 0 1 -.41.21.34.34 0 0 1 -.1-.01 13.3126 13.3126 0 0 1 -3.12-1.04c-.32-.16-.63-.32-.91-.49a7.8184 7.8184 0 0 1 -2.87.54 7.2682 7.2682 0 0 1 -7.5-7 7.2682 7.2682 0 0 1 7.5-7 7.2682 7.2682 0 0 1 7.5 7 6.6813 6.6813 0 0 1 -1.48 4.17c.13.37.27.74.44 1.13a19.6591 19.6591 0 0 0 .97 1.95z" fill="url(#linear-gradient)"/></svg>